<svg width="50" height="50" viewBox="0 0 50 50" fill="none" xmlns="http://www.w3.org/2000/svg">
<g id="healthicons:ui-secure-negative" clip-path="url(#clip0_66_4128)">
<g id="Group">
<path id="Vector" d="M18.7173 18.9285H30.903V16.8976C30.903 15.2817 30.2611 13.7319 29.1184 12.5893C27.9758 11.4467 26.4261 10.8047 24.8101 10.8047C23.1942 10.8047 21.6445 11.4467 20.5018 12.5893C19.3592 13.7319 18.7173 15.2817 18.7173 16.8976V18.9285Z" fill="url(#paint0_linear_66_4128)"/>
<path id="Vector_2" d="M15.6709 27.0523H33.9494V25.0214H15.6709V27.0523Z" fill="url(#paint1_linear_66_4128)"/>
<path id="Vector_3" d="M33.9494 32.1297H15.6709V30.0988H33.9494V32.1297Z" fill="url(#paint2_linear_66_4128)"/>
<path id="Vector_4" d="M15.6709 37.2071H33.9494V35.1761H15.6709V37.2071Z" fill="url(#paint3_linear_66_4128)"/>
<path id="Vector_5" fill-rule="evenodd" clip-rule="evenodd" d="M0.438965 0.649963H49.1817V49.3927H0.438965V0.649963ZM11.6092 18.9285C11.0705 18.9285 10.554 19.1425 10.1731 19.5234C9.79221 19.9042 9.57824 20.4208 9.57824 20.9595V41.269C9.57824 41.8076 9.79221 42.3242 10.1731 42.7051C10.554 43.0859 11.0705 43.2999 11.6092 43.2999H38.0115C38.5502 43.2999 39.0667 43.0859 39.4476 42.7051C39.8285 42.3242 40.0425 41.8076 40.0425 41.269V20.9595C40.0425 20.4208 39.8285 19.9042 39.4476 19.5234C39.0667 19.1425 38.5502 18.9285 38.0115 18.9285H34.9651V16.8976C34.9651 11.2891 30.4188 6.74281 24.8104 6.74281C19.2019 6.74281 14.6556 11.2891 14.6556 16.8976V18.9285H11.6092Z" fill="url(#paint4_linear_66_4128)"/>
</g>
</g>
<defs>
<linearGradient id="paint0_linear_66_4128" x1="24.8101" y1="10.8047" x2="39.7092" y2="17.1299" gradientUnits="userSpaceOnUse">
<stop stop-color="#00DD9C"/>
<stop offset="0.609375" stop-color="#253FE0" stop-opacity="0.619792"/>
<stop offset="1" stop-color="#060ED0" stop-opacity="0.28"/>
</linearGradient>
<linearGradient id="paint1_linear_66_4128" x1="24.8102" y1="25.0214" x2="28.3326" y2="33.9936" gradientUnits="userSpaceOnUse">
<stop stop-color="#00DD9C"/>
<stop offset="0.609375" stop-color="#253FE0" stop-opacity="0.619792"/>
<stop offset="1" stop-color="#060ED0" stop-opacity="0.28"/>
</linearGradient>
<linearGradient id="paint2_linear_66_4128" x1="24.8102" y1="30.0988" x2="28.3326" y2="39.071" gradientUnits="userSpaceOnUse">
<stop stop-color="#00DD9C"/>
<stop offset="0.609375" stop-color="#253FE0" stop-opacity="0.619792"/>
<stop offset="1" stop-color="#060ED0" stop-opacity="0.28"/>
</linearGradient>
<linearGradient id="paint3_linear_66_4128" x1="24.8102" y1="35.1761" x2="28.3326" y2="44.1484" gradientUnits="userSpaceOnUse">
<stop stop-color="#00DD9C"/>
<stop offset="0.609375" stop-color="#253FE0" stop-opacity="0.619792"/>
<stop offset="1" stop-color="#060ED0" stop-opacity="0.28"/>
</linearGradient>
<linearGradient id="paint4_linear_66_4128" x1="24.8104" y1="0.649961" x2="89.9313" y2="19.0806" gradientUnits="userSpaceOnUse">
<stop stop-color="#00DD9C"/>
<stop offset="0.609375" stop-color="#253FE0" stop-opacity="0.619792"/>
<stop offset="1" stop-color="#060ED0" stop-opacity="0.28"/>
</linearGradient>
<clipPath id="clip0_66_4128">
<rect width="48.7428" height="48.7428" fill="white" transform="translate(0.438965 0.649963)"/>
</clipPath>
</defs>
</svg>
