<svg width="62" height="62" viewBox="0 0 62 62" fill="none" xmlns="http://www.w3.org/2000/svg">
<g id="ri:secure-payment-fill">
<path id="Vector" d="M28.5561 5.4826L47.0834 11.2708C47.6001 11.4321 48.0518 11.7544 48.3724 12.1905C48.693 12.6267 48.8658 13.1539 48.8656 13.6953V18.176H53.9429C54.6162 18.176 55.262 18.4435 55.7381 18.9196C56.2142 19.3957 56.4816 20.0414 56.4816 20.7147V25.7921H23.4787V20.7147C23.4787 20.0414 23.7462 19.3957 24.2223 18.9196C24.6984 18.4435 25.3441 18.176 26.0174 18.176H43.7882V15.5612L28.5561 10.7986L13.324 15.5612V34.3576C13.3236 35.9119 13.68 37.4455 14.3657 38.8403C15.0515 40.2351 16.0482 41.4539 17.2792 42.4027L17.759 42.748L28.5561 50.1127L38.1574 43.5629H26.0174C25.3441 43.5629 24.6984 43.2954 24.2223 42.8193C23.7462 42.3433 23.4787 41.6975 23.4787 41.0242V30.8695H56.4816V41.0242C56.4816 41.6975 56.2142 42.3433 55.7381 42.8193C55.262 43.2954 54.6162 43.5629 53.9429 43.5629L45.7684 43.5654C44.7859 44.8602 43.5927 46.0026 42.2142 46.9419L28.5561 56.2563L14.8979 46.9444C12.848 45.5468 11.1705 43.6695 10.0113 41.4759C8.85213 39.2823 8.24633 36.8387 8.24658 34.3576V13.6953C8.24689 13.1544 8.41994 12.6277 8.74051 12.1921C9.06109 11.7564 9.51243 11.4345 10.0287 11.2734L28.5561 5.4826Z" fill="url(#paint0_linear_66_4147)"/>
</g>
<defs>
<linearGradient id="paint0_linear_66_4147" x1="32.3641" y1="5.4826" x2="97.2761" y2="22.9355" gradientUnits="userSpaceOnUse">
<stop stop-color="#FD5A14"/>
<stop offset="0.609375" stop-color="#FFF06B" stop-opacity="0.59"/>
<stop offset="1" stop-color="#060ED0" stop-opacity="0.28"/>
</linearGradient>
</defs>
</svg>
