<svg width="53" height="46" viewBox="0 0 53 46" fill="none" xmlns="http://www.w3.org/2000/svg">
<g id="whh:protecteddirectory" clip-path="url(#clip0_66_4121)">
<path id="Vector" d="M46.4089 45.7238H7.0174C5.20511 45.7238 3.65784 45.0863 2.37556 43.8113C1.09329 42.5363 0.452148 40.9978 0.452148 39.1958V13.0836C0.452148 12.1996 0.768443 11.4346 1.40103 10.7886C2.03362 10.1425 2.81153 9.81954 3.73477 9.81954H28.3544C28.3544 9.58154 28.5511 9.10554 28.9443 8.39153C29.3375 7.67753 29.7222 7.01452 30.0983 6.40252L30.7138 5.53551C30.9532 4.8895 31.4319 4.354 32.15 3.929C32.8681 3.50399 33.6203 3.29149 34.4068 3.29149H46.7166C47.5373 3.29149 48.3066 3.50399 49.0247 3.929C49.7428 4.354 50.2215 4.8895 50.4609 5.53551C52.1364 7.71153 52.9741 9.13954 52.9741 9.81954V39.1958C52.9741 40.9978 52.333 42.5363 51.0507 43.8113C49.7684 45.0863 48.2212 45.7238 46.4089 45.7238ZM33.2784 22.8756C33.2784 21.0736 32.6372 19.5351 31.355 18.2601C30.0727 16.9851 28.5254 16.3476 26.7131 16.3476C24.9009 16.3476 23.3536 16.9851 22.0713 18.2601C20.789 19.5351 20.1479 21.0736 20.1479 22.8756C20.1479 24.2017 20.5326 25.4172 21.3019 26.5222C22.0713 27.6272 23.0715 28.4177 24.3025 28.8937L20.1479 39.1958H33.2784L29.1238 28.8937C30.3548 28.4177 31.355 27.6272 32.1243 26.5222C32.8937 25.4172 33.2784 24.2017 33.2784 22.8756ZM2.81153 2.27148C3.05089 1.62548 3.52961 1.08997 4.24768 0.664971C4.96576 0.239968 5.71802 0.0274658 6.50449 0.0274658H18.8143C19.635 0.0274658 20.4043 0.239968 21.1224 0.664971C21.8405 1.08997 22.3363 1.62548 22.6099 2.27148L25.0718 6.55552H0.452148L2.81153 2.27148Z" fill="url(#paint0_linear_66_4121)"/>
</g>
<defs>
<linearGradient id="paint0_linear_66_4121" x1="26.7131" y1="0.0274632" x2="95.2513" y2="22.3226" gradientUnits="userSpaceOnUse">
<stop stop-color="#05D2FF"/>
<stop offset="0.609375" stop-color="#253FE0" stop-opacity="0.619792"/>
<stop offset="1" stop-color="#060ED0" stop-opacity="0.28"/>
</linearGradient>
<clipPath id="clip0_66_4121">
<rect width="52.5821" height="45.6964" fill="white" transform="translate(0.422363 0.0275269)"/>
</clipPath>
</defs>
</svg>
